<svg width="800" height="450" viewBox="0 0 800 450" fill="none" xmlns="http://www.w3.org/2000/svg">
<g clip-path="url(#clip0)">
<g style="mix-blend-mode:multiply" filter="url(#filter0_d)">
<path d="M796 0H4C1.79086 0 0 1.79086 0 4V446C0 448.209 1.79086 450 4 450H796C798.209 450 800 448.209 800 446V4C800 1.79086 798.209 0 796 0Z" fill="white"/>
</g>
<path d="M796 0H4C1.79086 0 0 1.79086 0 4V446C0 448.209 1.79086 450 4 450H796C798.209 450 800 448.209 800 446V4C800 1.79086 798.209 0 796 0Z" fill="white"/>
<path fill-rule="evenodd" clip-rule="evenodd" d="M193 67H315V189H193V67ZM47 67H169V189H47V67ZM339 67H461V189H339V67ZM485 67H607V189H485V67ZM631 67H753V189H631V67Z" fill="url(#paint0_linear)"/>
<path fill-rule="evenodd" clip-rule="evenodd" d="M193 239H315V361H193V239ZM47 239H169V361H47V239ZM339 239H461V361H339V239ZM485 239H607V361H485V239ZM631 239H753V361H631V239Z" fill="url(#paint1_linear)"/>
<path fill-rule="evenodd" clip-rule="evenodd" d="M47 213H753V215H47V213Z" fill="url(#paint2_linear)"/>
<path d="M36 20C38.2091 20 40 18.2091 40 16C40 13.7909 38.2091 12 36 12C33.7909 12 32 13.7909 32 16C32 18.2091 33.7909 20 36 20Z" fill="#FF6D8B"/>
<path d="M52 20C54.2091 20 56 18.2091 56 16C56 13.7909 54.2091 12 52 12C49.7909 12 48 13.7909 48 16C48 18.2091 49.7909 20 52 20Z" fill="#FFCB4F"/>
<path d="M68 20C70.2091 20 72 18.2091 72 16C72 13.7909 70.2091 12 68 12C65.7909 12 64 13.7909 64 16C64 18.2091 65.7909 20 68 20Z" fill="#7CE8DD"/>
<path fill-rule="evenodd" clip-rule="evenodd" d="M0 32H800V34H0V32Z" fill="url(#paint3_linear)"/>
<path fill-rule="evenodd" clip-rule="evenodd" d="M742 14H766V18H742V14Z" fill="#E3E7EB"/>
<path fill-rule="evenodd" clip-rule="evenodd" d="M47 385H753V417H47V385Z" fill="#F6F8FA"/>
<path fill-rule="evenodd" clip-rule="evenodd" d="M356 399H444V403H356V399Z" fill="#E3E7EB"/>
<path fill-rule="evenodd" clip-rule="evenodd" d="M142.395 416.586L377.517 415.935C377.517 415.935 460.731 395.566 442.528 333.589C424.325 271.612 375.588 339.372 328.976 220.253C297.771 140.507 191.38 113.725 159.082 238.023C130.477 348.107 103.822 290.464 103.822 363.71C103.822 392.748 142.395 416.586 142.395 416.586" fill="#F6F5FF"/>
<path fill-rule="evenodd" clip-rule="evenodd" d="M381.96 414.96C381.96 414.96 390.249 391.231 399.188 383.43C408.127 375.629 403.738 362.139 413.165 354.988C422.591 347.837 433.025 331.572 437.788 325.408C446.077 314.682 443.484 304.881 443.882 291.928C444.234 280.463 448.229 280.39 452.496 269.011C455.747 260.343 456.235 255.63 458.347 255.792C460.46 255.955 463.385 274.862 458.672 283.476C453.959 292.09 457.264 307.557 455.584 312.975C453.517 319.641 450.22 323.458 450.22 334.185C450.22 344.911 443.466 339.237 441.119 351.412C438.519 364.902 430.393 357.914 421.778 387.493C419.624 394.893 392.198 403.096 389.436 409.272C386.673 415.448 381.96 414.96 381.96 414.96" fill="#FCD393"/>
<path fill-rule="evenodd" clip-rule="evenodd" d="M384.073 416.423C384.073 416.423 379.814 417.22 384.591 417.452C391.278 417.777 403.771 417.378 408.695 417.804C413.856 418.251 423.932 414.799 432.424 411.466C441.119 408.053 443.953 403.481 445.67 398.166C450.221 384.08 456.084 387.318 456.722 377.661C457.372 367.827 450.952 366.04 453.634 355.8C457.901 339.509 457.047 339.06 455.178 338.329C451.818 337.014 444.613 349.544 444.777 357.67C444.939 365.796 448.629 366.967 447.404 376.279C446.32 384.513 439.819 388.062 436.894 394.726C433.968 401.39 424.704 406.59 414.546 408.784C404.06 411.049 386.89 411.439 384.073 416.423" fill="#FCD393"/>
<path fill-rule="evenodd" clip-rule="evenodd" d="M383.206 416.26C383.206 416.26 403.791 405.643 414.871 399.764C422.835 395.539 435.35 394.726 434.726 381.263C433.941 364.29 444.045 348.107 440.577 338.139C437.111 328.171 425.625 324.921 429.526 305.634C433.426 286.348 440.144 272.045 433.426 270.745C426.709 269.445 416.957 283.314 414.79 293.932C412.623 304.55 403.738 301.084 405.039 313.868C406.339 326.654 416.523 326.871 419.774 346.158C423.025 365.444 417.174 381.047 405.472 388.847C393.77 396.649 383.043 410.626 383.206 416.26C383.206 416.26 384.073 416.423 383.206 416.26" fill="#71D9EA"/>
<path d="M427.575 282.88C427.575 282.88 417.878 300.541 418.691 312.081C419.503 323.62 424.542 329.796 428.443 334.022C432.343 338.247 434.293 342.961 427.955 362.626C421.616 382.292 433.481 378.391 416.415 389.931C399.35 401.47 388.217 409.312 384.926 415.245" stroke="white" stroke-width="0.527823" stroke-linecap="round" stroke-linejoin="round"/>
<path d="M432.035 296.63C436.306 303.059 439.452 310.556 441.135 319.197" stroke="#7E6EE6" stroke-width="1.05565" stroke-linecap="round" stroke-linejoin="round" stroke-dasharray="3.17"/>
<path d="M400.704 272.262C410.239 272.912 414.572 279.138 418.571 282.237" stroke="#7E6EE6" stroke-width="1.05565" stroke-linecap="round" stroke-linejoin="round" stroke-dasharray="3.17"/>
<path d="M198.954 129.889C260.498 109.735 238.271 168.749 285.163 158.169C364.407 140.29 289.97 278.004 348.046 266.302" stroke="#7E6EE6" stroke-width="1.05565" stroke-linecap="round" stroke-linejoin="round" stroke-dasharray="3.17"/>
<path opacity="0.2" fill-rule="evenodd" clip-rule="evenodd" d="M136.328 67.3697C73.8092 186.123 164.282 207.468 204.155 259.043C244.029 310.618 318.574 389.498 318.574 389.498L362.781 338.356C250.53 325.787 330.383 197.23 265.915 176.696C178.151 148.742 178.314 126.258 245.6 67.4241L136.328 67.3697Z" fill="#7E6EE6"/>
<path d="M125.926 345.724C125.926 345.724 73.9844 347.996 107.073 294.149C141.095 238.781 139.47 200.75 139.47 200.75" stroke="#7E6EE6" stroke-width="1.05565" stroke-linecap="round" stroke-linejoin="round" stroke-dasharray="3.17"/>
<path d="M335.913 337.897H316.607C321.433 336.489 333.138 331.863 341.343 324.623C351.6 315.573 344.963 303.507 347.98 272.737C350.997 241.967 368.386 208.287 395.643 181.03C419.777 156.897 516.31 129.143 511.483 67H632.753C633.96 82.4856 602.707 151.105 569.403 176.203C527.773 207.577 486.143 213.61 448.737 225.073C411.33 236.537 396.85 274.547 380.56 301.093C367.528 322.331 345.366 334.478 335.913 337.897Z" fill="#FDD9D9"/>
<path fill-rule="evenodd" clip-rule="evenodd" d="M299.938 323.404C298.204 311.702 282.617 270.05 277.834 258.609C270.798 241.78 246.573 226.79 225.809 240.504C225.133 239.745 220.272 234.438 216.818 234.869C213.099 235.331 212.443 243.695 220.709 243.793L221.545 243.779C220.128 245.03 218.735 246.429 217.374 247.991C195.27 273.345 188.553 288.731 148.896 301.083C109.24 313.435 118.558 337.272 125.926 345.724C133.294 354.175 137.411 356.559 134.811 375.412C132.21 394.265 154.097 382.78 164.933 389.931C175.767 397.082 271.55 371.295 287.152 346.591C287.152 346.591 301.671 335.105 299.938 323.404" fill="#7E6EE6"/>
<path fill-rule="evenodd" clip-rule="evenodd" d="M274.15 329.904C274.15 336.487 268.814 341.823 262.231 341.823C255.649 341.823 250.313 336.487 250.313 329.904C250.313 323.322 255.649 317.986 262.231 317.986C268.814 317.986 274.15 323.322 274.15 329.904" fill="#A59FF4"/>
<path fill-rule="evenodd" clip-rule="evenodd" d="M172.647 291.448C175.957 294.215 180.218 295.882 184.869 295.882C195.401 295.882 203.939 287.345 203.939 276.813C203.939 273.289 202.979 269.991 201.313 267.158C193.088 276.824 185.269 284.67 172.647 291.448" fill="#A59FF4"/>
<path fill-rule="evenodd" clip-rule="evenodd" d="M214.697 236.441C213.53 238.615 214.22 242.364 218.285 243.472C219.083 240.569 217.544 237.51 214.697 236.441" fill="#A59FF4"/>
<path d="M224.958 248.655C224.958 248.655 220.246 253.084 214.313 260.56C208.381 268.036 194.81 285.426 183.352 292.578C164.876 304.109 138.088 309.399 131.994 315.819" stroke="#554CCC" stroke-width="0.527823" stroke-linecap="round" stroke-linejoin="round"/>
<path d="M125.818 323.62C125.818 323.62 124.368 336.438 134.757 342.961C141.745 347.349 144.671 361.001 141.42 374.816" stroke="#554CCC" stroke-width="0.527823" stroke-linecap="round" stroke-linejoin="round"/>
<path fill-rule="evenodd" clip-rule="evenodd" d="M216.399 329.688L217.808 322.32C217.808 322.32 228.643 323.187 237.636 320.37L249.988 320.803L266.566 322.536L266.999 331.855C266.999 331.855 283.794 331.096 289.482 349.137C293.549 362.036 300.209 388.631 288.506 412.847L254.755 415.827C254.755 415.827 239.803 428.666 233.627 428.992C227.45 429.316 206.322 420.053 206.322 420.053C206.322 420.053 190.07 423.303 178.693 418.102C167.316 412.901 163.578 402.012 164.391 398.111C165.203 394.211 183.731 345.29 188.932 339.277C194.133 333.263 207.947 329.363 216.399 329.688" fill="#F87E7E"/>
<mask id="mask0" mask-type="alpha" maskUnits="userSpaceOnUse" x="164" y="320" width="132" height="109">
<path fill-rule="evenodd" clip-rule="evenodd" d="M217.807 322.32L216.399 329.688C207.948 329.363 194.133 333.263 188.932 339.277V339.277C183.731 345.291 165.204 394.211 164.391 398.111V398.111C163.578 402.012 167.316 412.902 178.693 418.102V418.102C190.069 423.303 206.323 420.052 206.323 420.052V420.052C206.323 420.052 226.613 428.949 233.237 429V429H233.353C233.447 428.999 233.539 428.996 233.627 428.992V428.992C239.803 428.666 254.755 415.827 254.755 415.827V415.827L288.506 412.847C300.209 388.63 293.55 362.036 289.482 349.137V349.137C283.793 331.096 267 331.855 267 331.855V331.855L266.566 322.536L249.988 320.803L237.636 320.37C228.643 323.187 217.807 322.32 217.807 322.32" fill="white"/>
</mask>
<g mask="url(#mask0)">
<path d="M194.145 326.02C194.145 326.02 197.628 334.262 200.261 334.836C202.894 335.409 212.806 332.127 216.02 332.968C219.235 333.808 224.77 343.535 227.937 344.528C231.104 345.522 244.603 337.645 248.251 338.285C251.899 338.925 255.464 346.436 260.781 346.002C266.098 345.567 270.881 335.04 275.723 334.709C280.564 334.377 283.107 339.717 290.989 339.835" stroke="#FF9C9C" stroke-width="0.527823" stroke-linecap="round" stroke-linejoin="round"/>
</g>
<mask id="mask1" mask-type="alpha" maskUnits="userSpaceOnUse" x="164" y="320" width="132" height="109">
<path fill-rule="evenodd" clip-rule="evenodd" d="M217.807 322.32L216.399 329.688C207.948 329.363 194.133 333.263 188.932 339.277V339.277C183.731 345.291 165.204 394.211 164.391 398.111V398.111C163.578 402.012 167.316 412.902 178.693 418.102V418.102C190.069 423.303 206.323 420.052 206.323 420.052V420.052C206.323 420.052 226.613 428.949 233.237 429V429H233.353C233.447 428.999 233.539 428.996 233.627 428.992V428.992C239.803 428.666 254.755 415.827 254.755 415.827V415.827L288.506 412.847C300.209 388.63 293.55 362.036 289.482 349.137V349.137C283.793 331.096 267 331.855 267 331.855V331.855L266.566 322.536L249.988 320.803L237.636 320.37C228.643 323.187 217.807 322.32 217.807 322.32" fill="white"/>
</mask>
<g mask="url(#mask1)">
<path d="M185.094 344.457C185.094 344.457 188.988 353.672 191.932 354.314C194.875 354.955 205.958 351.285 209.553 352.225C213.147 353.165 219.336 364.04 222.876 365.151C226.417 366.262 239.695 356.992 245.591 358.17C249.652 358.982 253.656 367.284 259.601 366.798C265.546 366.313 270.894 354.542 276.307 354.172C281.72 353.801 284.564 359.771 293.378 359.904" stroke="#FF9C9C" stroke-width="0.527823" stroke-linecap="round" stroke-linejoin="round"/>
</g>
<mask id="mask2" mask-type="alpha" maskUnits="userSpaceOnUse" x="164" y="320" width="132" height="109">
<path fill-rule="evenodd" clip-rule="evenodd" d="M217.807 322.32L216.399 329.688C207.948 329.363 194.133 333.263 188.932 339.277V339.277C183.731 345.291 165.204 394.211 164.391 398.111V398.111C163.578 402.012 167.316 412.902 178.693 418.102V418.102C190.069 423.303 206.323 420.052 206.323 420.052V420.052C206.323 420.052 226.613 428.949 233.237 429V429H233.353C233.447 428.999 233.539 428.996 233.627 428.992V428.992C239.803 428.666 254.755 415.827 254.755 415.827V415.827L288.506 412.847C300.209 388.63 293.55 362.036 289.482 349.137V349.137C283.793 331.096 267 331.855 267 331.855V331.855L266.566 322.536L249.988 320.803L237.636 320.37C228.643 323.187 217.807 322.32 217.807 322.32" fill="white"/>
</mask>
<g mask="url(#mask2)">
<path d="M175.559 366.993C175.559 366.993 179.453 376.209 182.397 376.851C185.34 377.492 196.423 373.822 200.018 374.761C203.612 375.701 209.8 386.577 213.341 387.688C216.882 388.799 227.401 379.816 233.41 380.017C238.286 380.179 244.121 389.821 250.066 389.336C256.011 388.85 261.36 377.079 266.772 376.709C272.185 376.338 277.51 384.916 286.285 384.08" stroke="#FF9C9C" stroke-width="0.527823" stroke-linecap="round" stroke-linejoin="round"/>
</g>
<mask id="mask3" mask-type="alpha" maskUnits="userSpaceOnUse" x="164" y="320" width="132" height="109">
<path fill-rule="evenodd" clip-rule="evenodd" d="M217.807 322.32L216.399 329.688C207.948 329.363 194.133 333.263 188.932 339.277V339.277C183.731 345.291 165.204 394.211 164.391 398.111V398.111C163.578 402.012 167.316 412.902 178.693 418.102V418.102C190.069 423.303 206.323 420.052 206.323 420.052V420.052C206.323 420.052 226.613 428.949 233.237 429V429H233.353C233.447 428.999 233.539 428.996 233.627 428.992V428.992C239.803 428.666 254.755 415.827 254.755 415.827V415.827L288.506 412.847C300.209 388.63 293.55 362.036 289.482 349.137V349.137C283.793 331.096 267 331.855 267 331.855V331.855L266.566 322.536L249.988 320.803L237.636 320.37C228.643 323.187 217.807 322.32 217.807 322.32" fill="white"/>
</mask>
<g mask="url(#mask3)">
<path d="M165.079 390.668C165.079 390.668 168.974 399.884 171.917 400.525C174.861 401.167 185.943 397.496 189.538 398.436C193.133 399.376 199.321 410.252 202.862 411.362C206.403 412.473 216.922 403.491 222.931 403.691C227.807 403.854 233.641 413.496 239.586 413.01C245.532 412.524 250.88 400.753 256.293 400.383C261.706 400.012 267.031 408.59 275.806 407.754" stroke="#FF9C9C" stroke-width="0.527823" stroke-linecap="round" stroke-linejoin="round"/>
</g>
<mask id="mask4" mask-type="alpha" maskUnits="userSpaceOnUse" x="164" y="320" width="132" height="109">
<path fill-rule="evenodd" clip-rule="evenodd" d="M217.807 322.32L216.399 329.688C207.948 329.363 194.133 333.263 188.932 339.277V339.277C183.731 345.291 165.204 394.211 164.391 398.111V398.111C163.578 402.012 167.316 412.902 178.693 418.102V418.102C190.069 423.303 206.323 420.052 206.323 420.052V420.052C206.323 420.052 226.613 428.949 233.237 429V429H233.353C233.447 428.999 233.539 428.996 233.627 428.992V428.992C239.803 428.666 254.755 415.827 254.755 415.827V415.827L288.506 412.847C300.209 388.63 293.55 362.036 289.482 349.137V349.137C283.793 331.096 267 331.855 267 331.855V331.855L266.566 322.536L249.988 320.803L237.636 320.37C228.643 323.187 217.807 322.32 217.807 322.32" fill="white"/>
</mask>
<g mask="url(#mask4)">
<path d="M286.233 384.125C289.941 383.99 296.857 372.011 302.588 370.194C307.238 368.719 315.957 375.859 321.399 373.415" stroke="#FF9C9C" stroke-width="0.527823" stroke-linecap="round" stroke-linejoin="round"/>
</g>
<path fill-rule="evenodd" clip-rule="evenodd" d="M230.702 354.013C230.322 353.525 209.939 330.081 209.939 330.081C213.48 329.562 216.399 329.688 216.399 329.688L230.702 354.013Z" fill="#B23D3D"/>
<path fill-rule="evenodd" clip-rule="evenodd" d="M407.639 338.898H311.067L288.019 417.452H384.591L407.639 338.898Z" fill="#DCDCFF"/>
<path fill-rule="evenodd" clip-rule="evenodd" d="M317.578 420.516C317.578 420.516 318.553 409.708 305.794 411.009C293.036 412.309 293.686 420.76 293.686 420.76L317.578 420.516Z" fill="#7E6EE6"/>
<path fill-rule="evenodd" clip-rule="evenodd" d="M255.947 393.615L279.135 403.8C279.135 403.8 292.786 399.141 304.055 402.283C315.323 405.425 313.374 413.551 309.472 417.561C305.572 421.569 278.159 416.91 275.667 415.827L252.426 417.642C249.012 404.233 255.947 393.615 255.947 393.615" fill="#F4BB82"/>
<path d="M204.914 382.346C204.914 382.346 205.781 374.491 206.106 368.694C206.539 360.97 212.065 350.166 212.065 350.166" stroke="white" stroke-width="0.527823" stroke-linecap="round" stroke-linejoin="round"/>
<path d="M198.413 383.863C198.413 383.863 223.225 378.663 232.11 381.372C240.995 384.08 255.948 393.615 255.948 393.615C255.948 393.615 249.013 403.909 252.047 416.586" stroke="white" stroke-width="0.527823" stroke-linecap="round" stroke-linejoin="round"/>
<path d="M273.5 352.225C273.5 352.225 276.269 367.05 277.618 376.116C278.701 383.403 272.742 398.707 272.742 398.707" stroke="white" stroke-width="0.527823" stroke-linecap="round" stroke-linejoin="round"/>
<path d="M217.645 331.53L230.323 353.362C230.323 353.362 232.435 340.442 241.618 349.706" stroke="white" stroke-width="0.527823" stroke-linecap="round" stroke-linejoin="round"/>
<path d="M265.97 334.564L255.839 356.775C255.839 356.775 256.976 346.374 248.688 349.137" stroke="white" stroke-width="0.527823" stroke-linecap="round" stroke-linejoin="round"/>
<path d="M245.329 351.52L247.55 354.419C247.55 354.419 240.237 365.335 241.103 381.804" stroke="white" stroke-width="0.527823" stroke-linecap="round" stroke-linejoin="round"/>
<path fill-rule="evenodd" clip-rule="evenodd" d="M276.588 282.555C274.796 282.299 273.345 283.787 272.807 284.432C273.519 281.131 273.798 278.926 273.798 278.926L268.625 267.278C253.78 278.329 231.785 281.472 231.785 281.472C230.376 293.174 226.801 290.248 223.984 282.664C221.167 275.079 212.607 276.054 212.065 283.964C211.957 294.799 222.9 294.365 222.9 294.365C227.126 304.225 236.119 309.318 236.119 309.318C238.395 328.279 227.343 327.304 227.343 327.304L244.462 349.625L257.627 327.521C249.907 321.182 253.726 313.544 253.726 313.544C261.757 311.921 266.771 303.294 269.781 295.058C270.307 296.742 273.089 293.904 275.397 290.952C277.726 287.973 278.864 282.88 276.588 282.555" fill="#F4BB82"/>
<path d="M264.507 275.729C264.507 275.729 266.241 273.183 270.683 273.887" stroke="white" stroke-width="0.527823" stroke-linecap="round" stroke-linejoin="round"/>
<path d="M239.586 274.212C239.586 274.212 245.844 270.88 250.72 274.05" stroke="white" stroke-width="0.527823" stroke-linecap="round" stroke-linejoin="round"/>
<path d="M259.415 282.501C259.496 283.557 256.652 289.246 260.796 295.178C261.49 296.171 256.814 297.941 256.814 297.941" stroke="#1A1A1A" stroke-width="0.527823" stroke-linecap="round" stroke-linejoin="round"/>
<path fill-rule="evenodd" clip-rule="evenodd" d="M245.839 286.314C245.553 287.549 245.924 288.69 246.667 288.862C247.411 289.034 248.245 288.172 248.53 286.936C248.816 285.701 248.445 284.56 247.701 284.388C246.958 284.216 246.124 285.079 245.839 286.314" fill="#1A1A1A"/>
<path fill-rule="evenodd" clip-rule="evenodd" d="M263.486 287.445C263.201 288.68 263.572 289.821 264.315 289.993C265.059 290.165 265.893 289.303 266.179 288.067C266.464 286.832 266.093 285.691 265.349 285.519C264.606 285.347 263.772 286.21 263.486 287.445" fill="#1A1A1A"/>
<path fill-rule="evenodd" clip-rule="evenodd" d="M251.992 299.255C251.992 299.255 256.49 299.458 258.223 302.113C259.956 304.767 255.568 307.747 249.88 307.205C244.191 306.663 243.541 301.463 244.408 300C245.274 298.537 248.106 298.388 251.992 299.255" fill="#1A1A1A"/>
<path fill-rule="evenodd" clip-rule="evenodd" d="M258.017 301.84C256.162 299.45 251.993 299.255 251.993 299.255C249.398 298.676 247.277 298.553 245.895 298.969L245.695 300.622C245.646 301.026 245.934 301.393 246.337 301.442L257.165 302.749C257.568 302.798 257.936 302.511 257.984 302.106L258.017 301.84Z" fill="white"/>
<path fill-rule="evenodd" clip-rule="evenodd" d="M251.816 303.589C248.472 302.381 246.005 303.791 245.019 304.531C245.875 305.844 247.397 306.969 249.88 307.205C251.991 307.406 253.92 307.121 255.427 306.548C254.887 305.496 253.846 304.321 251.816 303.589" fill="#F87E7E"/>
<path d="M216.534 281.851L221.898 285.67C221.898 285.67 216.643 288.812 221.221 290.302" stroke="#1A1A1A" stroke-width="0.527823" stroke-linecap="round" stroke-linejoin="round"/>
<path d="M226.964 281.39C226.964 281.39 249.88 282.013 273.934 263.485" stroke="white" stroke-width="0.527823" stroke-linecap="round" stroke-linejoin="round"/>
<path fill-rule="evenodd" clip-rule="evenodd" d="M236.119 309.318C236.229 310.237 236.3 311.095 236.35 311.923C241.994 320.902 249.272 319.451 252.784 318.012C252.807 315.387 253.726 313.544 253.726 313.544C243.92 315.277 236.119 309.318 236.119 309.318" fill="#935E2E"/>
<path d="M272.579 285.386C272.579 285.386 271.238 289.977 270.466 292.618" stroke="white" stroke-width="0.527823" stroke-linecap="round" stroke-linejoin="round"/>
<path fill-rule="evenodd" clip-rule="evenodd" d="M222.9 295.53C222.9 296.757 221.906 297.751 220.679 297.751C219.453 297.751 218.458 296.757 218.458 295.53C218.458 294.304 219.453 293.309 220.679 293.309C221.906 293.309 222.9 294.304 222.9 295.53" fill="#F87E7E"/>
<path fill-rule="evenodd" clip-rule="evenodd" d="M273.757 295.412C273.757 296.352 272.995 297.114 272.054 297.114C271.114 297.114 270.353 296.352 270.353 295.412C270.353 294.472 271.114 293.71 272.054 293.71C272.995 293.71 273.757 294.472 273.757 295.412" fill="#F87E7E"/>
<path fill-rule="evenodd" clip-rule="evenodd" d="M186.386 394.157C186.386 385.294 180.755 377.748 172.877 374.896C168.409 386.314 164.742 396.424 164.391 398.112C163.766 401.107 165.832 408.223 171.975 413.721C180.323 411.135 186.386 403.354 186.386 394.157" fill="#F9B7B7"/>
<path opacity="0.4" fill-rule="evenodd" clip-rule="evenodd" d="M77.5291 396.448C133.944 312.352 202.513 454.553 300.453 374.735L306.141 355.638C282.358 373.597 238.286 378.879 182.052 343.124C129.794 309.896 83.5764 326.336 62 363.104C62.0169 375.71 69.2977 387.332 77.5291 396.448" fill="white"/>
<path fill-rule="evenodd" clip-rule="evenodd" d="M332.01 384.622C331.951 384.622 331.89 384.613 331.83 384.596C331.485 384.496 331.286 384.137 331.385 383.792C331.437 383.611 332.689 379.318 335.456 374.955C339.179 369.088 343.87 365.986 349.021 365.986C361.478 365.986 363.838 383.712 363.86 383.891C363.905 384.247 363.652 384.572 363.295 384.617C362.939 384.654 362.614 384.408 362.57 384.052C362.548 383.885 360.331 367.286 349.021 367.286C337.627 367.286 332.683 383.983 332.635 384.151C332.552 384.436 332.292 384.622 332.01 384.622" fill="#719ACC"/>
<path fill-rule="evenodd" clip-rule="evenodd" d="M337.265 384.351C337.228 384.351 337.19 384.345 337.154 384.332C336.986 384.27 336.899 384.085 336.959 383.916C336.97 383.885 338.08 380.849 340.125 377.856C342.864 373.848 346.034 371.728 349.292 371.728C352.577 371.728 355.242 373.865 356.999 377.91C358.303 380.913 358.648 383.866 358.662 383.989C358.682 384.168 358.554 384.329 358.376 384.35C358.193 384.369 358.036 384.241 358.016 384.063C358.003 383.946 356.605 372.378 349.292 372.378C341.912 372.378 337.613 384.019 337.57 384.136C337.522 384.269 337.398 384.351 337.265 384.351" fill="#719ACC"/>
<path fill-rule="evenodd" clip-rule="evenodd" d="M343.008 384.27C342.989 384.27 342.97 384.268 342.951 384.263C342.82 384.232 342.739 384.1 342.77 383.97C342.839 383.683 344.489 376.96 348.798 376.848C353.168 376.755 353.634 383.453 353.653 383.739C353.662 383.873 353.559 383.99 353.425 383.998C353.298 384.013 353.175 383.906 353.166 383.771C353.161 383.705 352.725 377.234 348.81 377.335C344.875 377.437 343.261 384.016 343.244 384.083C343.218 384.194 343.118 384.27 343.008 384.27" fill="#719ACC"/>
<path fill-rule="evenodd" clip-rule="evenodd" d="M217.156 176.807L219.399 183.477L225.854 202.679L191.365 213.79L182.667 187.918L217.156 176.807Z" fill="#B0CAEC"/>
<path fill-rule="evenodd" clip-rule="evenodd" d="M226.687 180.45L225.854 202.679L219.353 183.496L219.399 183.477L226.687 180.45Z" fill="#6D95C6"/>
<path fill-rule="evenodd" clip-rule="evenodd" d="M153.771 115.402L158.307 119.007L162.605 122.422L155.283 123.451L153.771 115.402Z" fill="#CE5252"/>
<path fill-rule="evenodd" clip-rule="evenodd" d="M153.771 115.402L155.283 123.451L162.605 122.422L167.386 147.875L147.004 150.739L143.243 151.268L136.951 117.766L153.771 115.402Z" fill="#F07A7A"/>
<path fill-rule="evenodd" clip-rule="evenodd" d="M165.635 117.977L171.928 151.479L147.78 154.873L147.003 150.739L167.386 147.875L162.605 122.422L158.307 119.007L165.635 117.977Z" fill="#34D5C7"/>
<path fill-rule="evenodd" clip-rule="evenodd" d="M442.03 175.633C429.211 175.031 418.445 182.658 417.982 192.67C417.649 199.877 422.745 206.354 430.409 209.643C432.432 210.394 432.432 210.394 432.432 210.394C432.432 210.394 434.242 210.997 436.706 211.492C437.891 211.695 439.108 211.83 440.352 211.888C453.17 212.491 463.937 204.863 464.4 194.851C464.862 184.84 454.847 176.236 442.03 175.633Z" fill="#F07A7A"/>
<path fill-rule="evenodd" clip-rule="evenodd" d="M425.547 198.193L425.444 198.082C425.32 197.952 425.329 197.748 425.463 197.627L435.782 188.353C435.916 188.232 436.126 188.241 436.249 188.372L436.353 188.482C436.477 188.612 436.468 188.816 436.334 188.938L426.015 198.211C425.881 198.332 425.671 198.323 425.547 198.193" fill="white"/>
<path fill-rule="evenodd" clip-rule="evenodd" d="M432.409 198.193L432.306 198.082C432.182 197.952 432.191 197.748 432.325 197.627L442.644 188.353C442.778 188.232 442.987 188.241 443.111 188.372L443.214 188.482C443.339 188.612 443.33 188.816 443.196 188.938L432.876 198.211C432.742 198.332 432.533 198.323 432.409 198.193" fill="white"/>
<path fill-rule="evenodd" clip-rule="evenodd" d="M439.271 198.72L439.167 198.61C439.044 198.48 439.052 198.276 439.186 198.154L449.506 188.881C449.64 188.76 449.849 188.769 449.973 188.899L450.076 189.01C450.2 189.141 450.191 189.344 450.057 189.465L439.738 198.739C439.604 198.86 439.394 198.851 439.271 198.72" fill="white"/>
<path fill-rule="evenodd" clip-rule="evenodd" d="M446.132 199.248L446.029 199.138C445.905 199.007 445.914 198.803 446.048 198.683L456.367 189.409C456.501 189.288 456.711 189.297 456.834 189.427L456.938 189.538C457.062 189.669 457.053 189.872 456.919 189.993L446.6 199.267C446.466 199.388 446.256 199.379 446.132 199.248" fill="white"/>
<path fill-rule="evenodd" clip-rule="evenodd" d="M333.919 242.795L327.431 237.789L326.596 217.864L333.919 242.795Z" fill="#7A6BDF"/>
<path fill-rule="evenodd" clip-rule="evenodd" d="M324.66 235.788L326.596 217.864L327.431 237.789L320.99 239.721L324.66 235.788Z" fill="#A09AEC"/>
<path fill-rule="evenodd" clip-rule="evenodd" d="M321.342 233.664L324.66 235.788L320.989 239.722L320.949 239.764L320.951 239.733L321.342 233.664Z" fill="#574FC0"/>
<path fill-rule="evenodd" clip-rule="evenodd" d="M321.343 233.662L316.208 230.376L326.596 217.863L324.66 235.788L321.343 233.662Z" fill="#7A6BDF"/>
<path fill-rule="evenodd" clip-rule="evenodd" d="M320.951 239.733L320.939 239.737L320.952 239.722L320.951 239.733Z" fill="#53507A"/>
<path fill-rule="evenodd" clip-rule="evenodd" d="M117.824 271.709L126.667 256.951L127.16 274.457L117.824 271.709Z" fill="#F07A7A"/>
<path fill-rule="evenodd" clip-rule="evenodd" d="M117.824 271.709L121.491 272.792L118.307 277.562L118.283 277.597L118.279 277.533L117.824 271.709Z" fill="#D96262"/>
<path fill-rule="evenodd" clip-rule="evenodd" d="M118.308 277.587L118.3 277.572L118.307 277.563L118.308 277.587Z" fill="#7D5C5C"/>
<path fill-rule="evenodd" clip-rule="evenodd" d="M114.64 270.975L126.667 256.951L117.824 271.709L118.279 277.533L114.64 270.975Z" fill="#F1B1B1"/>
<path fill-rule="evenodd" clip-rule="evenodd" d="M114.64 270.975L106.991 269.494L126.667 256.951L114.64 270.975Z" fill="#F07A7A"/>
<path fill-rule="evenodd" clip-rule="evenodd" d="M185.904 376.219C180.409 378.004 174.486 374.985 172.701 369.491C170.916 363.996 173.935 358.073 179.429 356.288C184.924 354.503 190.847 357.521 192.632 363.016C194.417 368.511 191.399 374.434 185.904 376.219M178.939 354.778C172.612 356.834 169.136 363.654 171.191 369.981C173.246 376.309 180.067 379.785 186.395 377.729C192.722 375.673 196.197 368.853 194.142 362.526C192.087 356.198 185.266 352.722 178.939 354.778" fill="#EBF4FF"/>
<g clip-path="url(#clip1)">
<path d="M177.729 369.029L183.829 369.769C183.897 369.778 183.966 369.772 184.031 369.754C184.096 369.735 184.158 369.704 184.212 369.661L189.024 365.839C189.147 365.742 189.218 365.593 189.218 365.436C189.219 365.28 189.147 365.131 189.025 365.033L181.412 358.935C181.282 358.831 181.105 358.798 180.95 358.841C180.794 358.885 180.661 359.007 180.605 359.163L177.306 368.343C177.253 368.49 177.27 368.654 177.352 368.787C177.434 368.921 177.573 369.01 177.729 369.029V369.029ZM184.177 368.373L182.023 360.745L187.877 365.434L184.177 368.373ZM181.031 361.025L183.185 368.653L178.494 368.084L181.031 361.025Z" fill="#EBF4FF"/>
<path d="M189.7 367.365C189.513 367.198 189.233 367.192 189.036 367.346L184.393 371.033L178.506 370.319C178.257 370.29 178.022 370.443 177.95 370.683C177.879 370.924 177.991 371.182 178.216 371.293L185.064 374.68C185.182 374.738 185.313 374.747 185.432 374.714C185.551 374.68 185.658 374.604 185.728 374.492L189.793 368.024C189.927 367.811 189.887 367.533 189.7 367.365ZM185.103 373.549L181.376 371.706L184.483 372.083C184.619 372.1 184.758 372.061 184.865 371.975L187.316 370.028C187.316 370.028 185.103 373.549 185.103 373.549V373.549Z" fill="#EBF4FF"/>
</g>
<g clip-path="url(#clip2)">
<path d="M155.064 353.228L155.723 351.118C156.932 347.246 154.766 343.112 150.893 341.902C147.021 340.693 142.887 342.86 141.678 346.732L141.019 348.842C140.194 348.873 139.438 349.416 139.179 350.249L138.381 352.802C136.952 357.378 139.512 362.264 144.089 363.693C148.665 365.122 153.55 362.562 154.979 357.986L155.777 355.432C156.037 354.6 155.725 353.723 155.064 353.228ZM142.955 347.131C143.944 343.962 147.329 342.181 150.497 343.171C153.665 344.16 155.435 347.551 154.446 350.719L153.821 352.719L152.545 352.321L153.169 350.32C153.939 347.856 152.56 345.226 150.096 344.456C147.632 343.687 145.001 345.065 144.232 347.529L143.607 349.53L142.33 349.131L142.955 347.131ZM151.892 349.922L151.268 351.922L144.884 349.928L145.508 347.928C146.058 346.168 147.94 345.175 149.7 345.724C151.46 346.274 152.442 348.162 151.892 349.922ZM153.703 357.587C152.493 361.459 148.357 363.634 144.485 362.425C140.613 361.216 138.449 357.073 139.658 353.201L140.455 350.647C140.565 350.295 140.941 350.098 141.293 350.208L154.061 354.196C154.413 354.305 154.61 354.681 154.5 355.033L153.703 357.587Z" fill="#EBF4FF"/>
<path d="M147.278 353.479C146.222 353.149 145.095 353.74 144.765 354.796C144.505 355.628 144.817 356.504 145.478 357L144.846 359.025C144.736 359.377 144.932 359.753 145.285 359.863C145.637 359.973 146.012 359.776 146.123 359.424L146.755 357.399C147.58 357.367 148.336 356.824 148.595 355.992C148.925 354.936 148.334 353.808 147.278 353.479ZM146.481 356.032C146.129 355.922 145.932 355.547 146.042 355.195C146.152 354.843 146.528 354.646 146.88 354.755C147.232 354.865 147.429 355.241 147.319 355.593C147.209 355.945 146.833 356.142 146.481 356.032Z" fill="#EBF4FF"/>
</g>
<path fill-rule="evenodd" clip-rule="evenodd" d="M408.735 240.784C406.839 247.096 397.176 249.771 387.153 246.757C377.13 243.744 370.542 236.184 372.439 229.872C374.336 223.56 383.999 220.885 394.022 223.898C404.045 226.911 410.633 234.472 408.735 240.784" fill="#7E6EE6"/>
<path fill-rule="evenodd" clip-rule="evenodd" d="M386.297 234.2C386.046 235.037 385.163 235.512 384.325 235.26C383.488 235.009 383.013 234.126 383.265 233.289C383.517 232.451 384.4 231.976 385.237 232.228C386.075 232.48 386.549 233.362 386.297 234.2" fill="white"/>
<path fill-rule="evenodd" clip-rule="evenodd" d="M392.103 235.783C391.852 236.621 390.969 237.095 390.131 236.844C389.294 236.592 388.819 235.709 389.071 234.872C389.323 234.035 390.206 233.56 391.043 233.812C391.88 234.063 392.355 234.946 392.103 235.783" fill="white"/>
<path fill-rule="evenodd" clip-rule="evenodd" d="M397.91 237.367C397.658 238.204 396.775 238.679 395.938 238.427C395.1 238.176 394.626 237.293 394.877 236.456C395.129 235.618 396.012 235.143 396.849 235.395C397.687 235.647 398.161 236.53 397.91 237.367" fill="white"/>
<path d="M376.601 269.49L375.754 269.327L376.082 267.634C376.541 265.265 375.04 263.043 372.67 262.584C370.301 262.125 368.079 263.626 367.62 265.996L367.292 267.688L366.446 267.524C365.515 267.344 364.606 267.958 364.426 268.889L362.788 277.351C362.607 278.282 363.222 279.191 364.152 279.371L374.307 281.337C375.237 281.517 376.146 280.903 376.327 279.972L377.965 271.511C378.145 270.58 377.531 269.671 376.601 269.49ZM370.049 276.123C369.118 275.943 368.504 275.034 368.684 274.103C368.864 273.172 369.773 272.558 370.704 272.738C371.635 272.919 372.249 273.828 372.069 274.758C371.889 275.689 370.98 276.303 370.049 276.123ZM374.147 269.015L368.9 267.999L369.228 266.307C369.506 264.869 370.92 263.913 372.359 264.192C373.798 264.47 374.753 265.884 374.474 267.323L374.147 269.015Z" fill="#7E6EE6"/>
<circle cx="369.998" cy="274.137" r="3.62" fill="#7E6EE6"/>
<path fill-rule="evenodd" clip-rule="evenodd" d="M527.774 109.234L567.921 139.741L568.254 129.922L527.774 109.234Z" fill="#B1C6DD"/>
<path fill-rule="evenodd" clip-rule="evenodd" d="M553.758 122.514L553.078 128.463L567.921 139.74L568.254 129.923L553.758 122.514Z" fill="#BCD7FD"/>
<path fill-rule="evenodd" clip-rule="evenodd" d="M567.921 139.741L563.375 133.641L527.773 109.234L560.823 136.451L567.921 139.741Z" fill="#B1C6DD"/>
<path fill-rule="evenodd" clip-rule="evenodd" d="M563.375 133.641L550.204 147.696L527.773 109.234L563.375 133.641Z" fill="#E4ECF6"/>
<path fill-rule="evenodd" clip-rule="evenodd" d="M568.254 129.923L527.774 109.234L580.521 120.301L568.254 129.923Z" fill="#E4ECF6"/>
<path fill-rule="evenodd" clip-rule="evenodd" d="M549.4 124.06L549.415 146.344L550.204 147.696L563.386 133.625L549.4 124.06Z" fill="#EBF4FF"/>
<path fill-rule="evenodd" clip-rule="evenodd" d="M578.35 119.845L553.758 122.514L568.253 129.964L580.521 120.301L578.35 119.845Z" fill="#EBF4FF"/>
<path fill-rule="evenodd" clip-rule="evenodd" d="M549.4 124.06L549.415 146.344L550.424 124.76L549.4 124.06Z" fill="#BCD7FD"/>
<path fill-rule="evenodd" clip-rule="evenodd" d="M553.758 122.514L555.05 123.178L578.35 119.845L553.758 122.514Z" fill="#BCD7FD"/>
<path fill-rule="evenodd" clip-rule="evenodd" d="M563.387 133.625L560.776 136.413L563.677 137.774L563.387 133.625Z" fill="#95AFC6"/>
<path fill-rule="evenodd" clip-rule="evenodd" d="M529.997 113.047L530.498 111.101L527.774 109.233L529.997 113.047Z" fill="#BCD7FD"/>
<path fill-rule="evenodd" clip-rule="evenodd" d="M530.906 110.835L533.042 110.34L527.773 109.234L530.906 110.835Z" fill="#BCD7FD"/>
<path d="M515.456 167.101L500.636 169.708L487.693 162.031L505.928 140.728L515.456 167.101Z" fill="#7CE5DA"/>
<path d="M514.327 169.855L498.215 182.963L487.776 165.006L500.154 172.347L514.327 169.855Z" fill="#7CE5DA"/>
<path d="M500.154 172.347L514.327 169.855L498.215 182.964L500.154 172.347Z" fill="#35D2C4"/>
<path d="M515.456 167.101L500.636 169.708L505.928 140.728L515.456 167.101Z" fill="#35D2C4"/>
</g>
<defs>
<filter id="filter0_d" x="-48" y="-32" width="896" height="546" filterUnits="userSpaceOnUse" color-interpolation-filters="sRGB">
<feFlood flood-opacity="0" result="BackgroundImageFix"/>
<feColorMatrix in="SourceAlpha" type="matrix" values="0 0 0 0 0 0 0 0 0 0 0 0 0 0 0 0 0 0 127 0"/>
<feOffset dy="16"/>
<feGaussianBlur stdDeviation="24"/>
<feColorMatrix type="matrix" values="0 0 0 0 0.12 0 0 0 0 0.17 0 0 0 0 0.21 0 0 0 0.2 0"/>
<feBlend mode="normal" in2="BackgroundImageFix" result="effect1_dropShadow"/>
<feBlend mode="normal" in="SourceGraphic" in2="effect1_dropShadow" result="shape"/>
</filter>
<linearGradient id="paint0_linear" x1="400" y1="67" x2="400" y2="189" gradientUnits="userSpaceOnUse">
<stop stop-color="#F6F8FA" stop-opacity="0.48"/>
<stop offset="1" stop-color="#F6F8FA"/>
</linearGradient>
<linearGradient id="paint1_linear" x1="400" y1="361" x2="400" y2="239" gradientUnits="userSpaceOnUse">
<stop stop-color="#F6F8FA" stop-opacity="0.48"/>
<stop offset="1" stop-color="#F6F8FA"/>
</linearGradient>
<linearGradient id="paint2_linear" x1="753" y1="212.744" x2="47" y2="212.744" gradientUnits="userSpaceOnUse">
<stop stop-color="#F6F8FA" stop-opacity="0"/>
<stop offset="0.50045" stop-color="#E3E7EB"/>
<stop offset="1" stop-color="#F6F8FA" stop-opacity="0"/>
</linearGradient>
<linearGradient id="paint3_linear" x1="800" y1="31.7437" x2="0" y2="31.7437" gradientUnits="userSpaceOnUse">
<stop stop-color="#F6F8FA" stop-opacity="0"/>
<stop offset="0.50045" stop-color="#E3E7EB"/>
<stop offset="1" stop-color="#F6F8FA" stop-opacity="0"/>
</linearGradient>
<clipPath id="clip0">
<rect width="800" height="450" fill="white"/>
</clipPath>
<clipPath id="clip1">
<rect width="16.4932" height="16.4932" fill="white" transform="translate(173.013 361.083) rotate(-15.7702)"/>
</clipPath>
<clipPath id="clip2">
<rect width="22.8284" height="22.8284" fill="white" transform="translate(139.998 338.5) rotate(17.3426)"/>
</clipPath>
</defs>
</svg>
