<svg width="32" height="32" viewBox="0 0 32 32" fill="none" xmlns="http://www.w3.org/2000/svg">
<path d="M21.471 16.3669L16.5162 18.2021L11.5613 16.3669L16.5162 7.85815L21.471 16.3669Z" fill="#7CE8DD"/>
<path d="M21.2546 17.3892L16.5162 22.9335L11.7778 17.3892L16.5162 19.1441L21.2546 17.3892Z" fill="#7CE8DD"/>
<path d="M16.5162 19.1441L21.2546 17.3892L16.5162 22.9335V19.1441Z" fill="#58BAB0"/>
<path d="M21.471 16.3669L16.5162 18.2021V7.85815L21.471 16.3669Z" fill="#58BAB0"/>
<path d="M2.98407 17.2883V22H1.39698V9.96452H5.83589C7.15296 9.96452 8.18347 10.3007 8.92742 10.973C9.67688 11.6453 10.0516 12.5353 10.0516 13.6429C10.0516 14.8112 9.68515 15.7122 8.95222 16.346C8.2248 16.9742 7.18051 17.2883 5.81936 17.2883H2.98407ZM2.98407 15.9905H5.83589C6.68454 15.9905 7.33481 15.7921 7.78669 15.3954C8.23858 14.9931 8.46452 14.4144 8.46452 13.6595C8.46452 12.9431 8.23858 12.37 7.78669 11.9401C7.33481 11.5103 6.71485 11.2871 5.92681 11.2706H2.98407V15.9905Z" fill="#7CE8DD"/>
<path d="M30.5186 16.4369H25.3026V20.7022H31.3617V22H23.7155V9.96452H31.279V11.2706H25.3026V15.1391H30.5186V16.4369Z" fill="#58BAB0"/>
</svg>
